<svg width="346" height="94" viewBox="0 0 346 94" fill="none" xmlns="http://www.w3.org/2000/svg">
<g clip-path="url(#clip0_143_133)">
<path d="M158.456 0H187.717C191.03 0.555832 194.742 0.362914 198.103 0.448905C202.468 0.560547 206.779 0.872902 211.132 1.12466C212.719 1.21643 214.319 1.15013 215.901 1.28187C222.743 1.85104 229.571 2.61261 236.401 3.31874C239.538 3.643 242.72 3.78982 245.842 4.19829C270.291 7.39554 328.005 17.0511 342.857 37.88C344.247 39.8276 344.632 42.1771 345.891 44.1125V50.1136C344.536 52.409 344.276 54.4829 342.452 56.6258C333.403 67.26 317.821 73.5242 304.732 77.5382C269.32 88.398 231.662 92.4511 194.744 93.5433C194.21 93.5589 193.283 93.755 192.797 94H153.57C152.514 93.2202 142.01 93.2197 140.195 93.153C133.397 92.9209 126.607 92.4941 119.833 91.8731C89.9709 89.167 57.6658 84.2446 29.5154 73.3563C19.429 69.455 5.48907 62.6185 1.03969 52.374C0.659638 51.499 0.491965 50.6495 0 49.7339V44.4077C1.86102 40.3106 2.67869 37.1595 6.43652 33.9058C17.5563 24.2778 32.0449 19.2118 45.8977 15.0836C52.6488 13.0329 59.4825 11.2643 66.3811 9.78235C94.4575 3.93182 124.164 1.22495 152.83 0.331C154.547 0.277432 156.791 0.304742 158.456 0Z" fill="#004899"/>
<path d="M176.457 5.06038C178.054 4.9264 181.554 5.0796 183.27 5.07946C189.189 5.07906 195.123 5.39515 201.032 5.65448C226.754 6.53626 252.358 9.55781 277.577 14.6878C324.156 24.4452 380.948 48.2529 299.988 73.686C293.963 75.7512 286.92 77.1995 280.693 78.6206C246.02 86.5348 210.821 88.2797 175.399 89.0681C177.153 87.9875 178.922 87.0713 180.671 85.9062C186.489 82.0488 191.372 76.943 194.964 70.9605C201.108 60.66 203.18 46.9683 200.228 35.3899C197.749 25.4365 192.081 16.5659 184.089 10.1299C181.446 8.02582 179.323 6.76022 176.457 5.06038Z" fill="white"/>
<path d="M221.97 29.5479C231.586 28.5077 240.235 35.435 241.311 45.0409C242.387 54.6466 235.485 63.3127 225.875 64.4221C216.217 65.5371 207.491 58.598 206.41 48.9433C205.329 39.2885 212.304 30.5938 221.97 29.5479Z" fill="#004899"/>
<path d="M222.547 34.4679C229.471 33.7378 235.677 38.7532 236.408 45.6713C237.141 52.5891 232.123 58.7908 225.198 59.5239C218.274 60.2571 212.065 55.241 211.332 48.3212C210.601 41.4011 215.622 35.1985 222.547 34.4679Z" fill="white"/>
<path d="M268.607 29.7777L273.47 29.7483L273.446 64.28L268.714 64.2865C267.633 63.2486 262.963 56.2153 261.941 54.6834C258.619 49.7038 254.356 44.1546 251.25 39.1117C250.968 46.9945 251.272 56.2355 251.196 64.2807L246.119 64.2846C245.966 52.9373 246.106 41.1311 246.118 29.7647C247.872 29.752 249.543 29.7407 251.301 29.8136C253.301 33.2717 256.906 38.3085 259.219 41.673L268.54 55.4808C268.628 46.9133 268.65 38.3453 268.607 29.7777Z" fill="#004899"/>
<path d="M280.964 29.7946C287.946 29.5816 296.688 29.6724 303.709 29.8017L303.712 34.7899L285.904 34.8208C285.892 37.9523 285.896 41.0837 285.916 44.215L301.937 44.2172L301.864 49.1616L286.149 49.1201C285.708 49.8039 285.884 57.7097 285.887 59.1199L304.312 59.1408L304.283 64.15L280.982 64.1704L280.964 29.7946Z" fill="#004899"/>
<path d="M332.783 44.4529C334.169 44.1177 335.571 44.9505 335.938 46.3283C336.304 47.7061 335.502 49.1243 334.132 49.5219C333.218 49.7872 332.232 49.5371 331.555 48.8683C330.878 48.1994 330.616 47.2167 330.871 46.2999C331.126 45.3834 331.857 44.6765 332.783 44.4529Z" fill="#004899"/>
<path d="M331.912 45.836C334.276 43.7418 336.06 46.5718 335.067 47.8183C334.705 47.9222 334.589 47.97 334.214 47.942C334.276 47.1947 334.955 47.1376 334.707 46.0937C334.023 45.3386 332.896 45.6125 332.187 46.2155L331.912 45.836Z" fill="white"/>
<path d="M332.562 49.1082C332.524 48.6655 332.526 48.5563 332.597 48.1198C333.124 47.7807 333.477 47.9235 334.213 47.9419C334.256 48.3773 334.262 48.4563 334.124 48.8675C333.539 49.2353 333.372 49.1016 332.562 49.1082Z" fill="white"/>
<path d="M331.912 45.836L332.187 46.2156C332.251 47.0219 332.39 47.2984 331.945 47.9046L331.657 47.8759C331.018 47.1075 331.27 46.4564 331.912 45.836Z" fill="white"/>
<path d="M57.7572 29.5607C67.409 28.819 75.8303 36.0471 76.5525 45.6931C77.2745 55.339 70.0231 63.7386 60.3683 64.4398C50.7419 65.139 42.3662 57.9194 41.6463 48.3022C40.9263 38.6848 48.1339 30.3004 57.7572 29.5607Z" fill="white"/>
<path d="M57.4138 34.4555C64.3323 33.5285 70.6977 38.3684 71.6477 45.2785C72.5977 52.1886 67.7745 58.5645 60.8621 59.5361C53.9183 60.512 47.5021 55.6657 46.5476 48.7241C45.5932 41.7826 50.4639 35.3869 57.4138 34.4555Z" fill="#004899"/>
<path d="M81.5574 29.818C86.7693 29.7951 94.4545 29.3246 99.3488 30.363C106.049 31.7846 108.559 39.229 106.627 45.2359C105.528 48.6524 103.563 50.2633 100.514 51.9384C101.281 52.9154 102.085 54.3382 102.814 55.3884C104.813 58.2671 106.621 61.2949 108.634 64.1572C106.62 64.2789 104.776 64.2575 102.763 64.2401C100.571 61.1565 98.061 56.3218 95.9509 52.9532C92.7365 52.9008 89.5213 52.9029 86.307 52.9592C86.5988 55.642 86.4402 61.3266 86.4283 64.2629C85.1937 64.2693 82.6738 64.34 81.5579 64.1554C81.4269 52.8261 81.5309 41.1561 81.5574 29.818Z" fill="white"/>
<path d="M85.8728 64.0469C85.6517 61.6037 86.0081 59.3508 86.1672 56.9251C86.254 55.6022 86.1449 54.2886 86.3072 52.9593C86.599 55.6421 86.4404 61.3266 86.4284 64.2629C85.1938 64.2693 82.674 64.34 81.5581 64.1554C82.3826 64.0108 84.9106 64.0514 85.8728 64.0469Z" fill="white"/>
<path d="M86.3828 34.7404C91.5876 34.6793 101.908 33.2626 102.046 40.6685C102.092 43.129 101.757 44.3227 100.106 46.1384C96.8992 48.6312 90.5688 47.9215 86.3999 47.8758C86.4306 43.4973 86.4249 39.1188 86.3828 34.7404Z" fill="#004899"/>
<path d="M147.243 29.8194C148.868 29.801 150.493 29.8011 152.118 29.8197C151.849 40.8133 152.075 52.7457 152.095 63.7969L152.092 63.9834L151.833 64.2186C150.338 64.38 148.644 64.2639 147.15 64.0961C145.825 62.6718 142.899 58.1169 141.594 56.2322L129.7 39.0459L129.681 64.2733L124.755 64.2569L124.771 29.8091L129.629 29.7892C130.561 30.9798 131.785 33.0057 132.704 34.3273C135.974 39.0681 139.201 43.8384 142.386 48.6372C143.782 50.7123 145.695 53.7104 147.289 55.5689C147.058 47.2517 147.199 38.1673 147.243 29.8194Z" fill="white"/>
<path d="M173.237 29.4333C178.702 29.1332 181.923 30.5112 186.014 33.9036L182.584 37.3008C176.105 31.9321 166.459 33.8353 162.927 41.7071C160.078 48.0568 162.977 55.889 169.483 58.7503C172.388 60.0483 175.689 60.1451 178.667 59.02C182.124 57.676 184.607 55.1986 186.1 51.821C181.886 51.7079 177.534 51.7707 173.31 51.7808C173.308 50.1199 173.322 48.4589 173.352 46.7981C179.53 46.7565 185.71 46.7651 191.89 46.8236C191.515 51.3346 190.64 54.7309 187.721 58.2861C177.77 70.408 158.42 64.0298 157.057 48.5715C156.68 43.8612 158.154 39.1895 161.167 35.5473C164.353 31.7617 168.374 29.8452 173.237 29.4333Z" fill="white"/>
<path d="M116.566 29.7849L117.21 29.841C117.639 30.5811 117.37 60.4793 117.368 64.2545L113.115 64.2604C112.584 64.2467 112.73 64.3267 112.398 64.0181C112.171 63.2404 112.327 56.8204 112.327 55.6325L112.338 29.8005C113.722 29.8237 115.176 29.7928 116.566 29.7849Z" fill="white"/>
</g>
<defs>
<clipPath id="clip0_143_133">
<rect width="345.891" height="94" fill="white"/>
</clipPath>
</defs>
</svg>
