<svg width="350" height="84" viewBox="0 0 350 84" fill="none" xmlns="http://www.w3.org/2000/svg">
<path d="M75.4782 22.1448C75.4782 22.1448 79.2501 29.5398 79.2501 42.7165C79.2501 55.8931 66.0433 76.6251 45.7629 76.6251C25.4824 76.6251 19.2692 69.1099 19.2692 66.1539C19.2692 62.6167 23.5715 62.9574 24.3319 62.9574C32.446 63.0075 47.6939 63.1077 53.4468 63.1077C70.4055 63.1077 69.0248 35.0209 53.5769 35.0209C45.0025 35.0209 40.5802 35.2113 31.3855 35.2113C26.8531 35.2113 26.633 29.0488 31.6356 28.3374C41.1005 26.9846 64.3624 31.0529 70.8558 25.191C79.4502 17.4353 65.9933 7.08435 59.1598 3.92796C33.3865 -7.92603 1.70021 8.17656 0.0793814 36.4538C-0.660999 49.2497 4.02141 56.6947 4.02141 56.6947C4.02141 56.6947 1.0799 50.5022 3.17097 37.9869C6.52269 18.0465 20.6199 6.80378 37.9489 6.80378C45.6228 6.80378 59.2098 9.73972 62.0412 17.9964C50.8255 19.3892 34.7472 15.3711 24.4719 20.1708C12.0856 25.9626 18.2787 45.6925 27.4535 45.6925H53.2667C55.788 45.6925 55.788 52.867 53.2667 52.867H20.3898C10.965 52.867 9.91444 61.4243 9.91444 63.5085C9.91444 77.8876 30.3049 85.6534 47.5838 83.7194C68.1244 81.4148 81.9315 65.6128 81.9315 45.462C81.9315 25.3112 75.4882 22.1649 75.4882 22.1649L75.4782 22.1448Z" fill="url(#paint0_linear_78_35007)"/>
<path d="M175.92 22.8462H183.744V54.8811H175.92V51.4942C174.389 52.9872 172.858 54.0594 171.328 54.7208C169.787 55.3821 168.126 55.7027 166.335 55.7027C162.313 55.7027 158.831 54.0995 155.89 50.893C152.948 47.6865 151.487 43.6984 151.487 38.9288C151.487 34.1591 152.908 29.9306 155.749 26.7642C158.591 23.6078 162.043 22.0246 166.105 22.0246C167.976 22.0246 169.727 22.3853 171.368 23.1168C173.008 23.8483 174.529 24.9305 175.92 26.3834V22.8462ZM167.706 29.4396C165.284 29.4396 163.283 30.3214 161.683 32.0749C160.082 33.8285 159.281 36.083 159.281 38.8286C159.281 41.5741 160.092 43.8788 161.723 45.6624C163.353 47.446 165.354 48.3378 167.736 48.3378C170.117 48.3378 172.228 47.4561 173.849 45.7025C175.47 43.949 176.28 41.6443 176.28 38.7985C176.28 35.9528 175.47 33.7583 173.849 32.0248C172.228 30.3013 170.187 29.4296 167.706 29.4296V29.4396Z" fill="black"/>
<path d="M191.598 22.8462H199.422V26.5237C200.763 25.0106 202.243 23.8883 203.884 23.1368C205.515 22.3953 207.306 22.0146 209.237 22.0146C211.168 22.0146 212.949 22.5056 214.51 23.4875C216.08 24.4695 217.341 25.9024 218.292 27.7862C219.532 25.9024 221.053 24.4695 222.864 23.4875C224.675 22.5056 226.646 22.0146 228.787 22.0146C230.928 22.0146 232.959 22.5456 234.64 23.6078C236.321 24.6699 237.532 26.0527 238.262 27.7562C238.992 29.4596 239.362 32.2453 239.362 36.0931V54.8811H231.478V38.6282C231.478 35.0008 231.038 32.5359 230.158 31.2533C229.277 29.9707 227.957 29.3294 226.206 29.3294C224.865 29.3294 223.674 29.7202 222.614 30.5118C221.553 31.3034 220.763 32.3855 220.253 33.7683C219.732 35.1511 219.482 37.3756 219.482 40.4419V54.9011H211.598V39.3797C211.598 36.5139 211.388 34.4397 210.978 33.1571C210.568 31.8745 209.947 30.9126 209.127 30.2813C208.306 29.65 207.306 29.3394 206.135 29.3394C204.835 29.3394 203.654 29.7402 202.584 30.5318C201.523 31.3234 200.723 32.4457 200.202 33.8685C199.672 35.3014 199.412 37.556 199.412 40.6423V54.8911H191.588V22.8563L191.598 22.8462Z" fill="black"/>
<path d="M278.042 41.1833H252.909C253.27 43.4579 254.24 45.2716 255.821 46.6143C257.402 47.9571 259.403 48.6284 261.854 48.6284C264.775 48.6284 267.287 47.5763 269.388 45.482L275.981 48.6585C274.34 51.0533 272.369 52.8269 270.078 53.9692C267.787 55.1115 265.066 55.6927 261.914 55.6927C257.021 55.6927 253.039 54.1095 249.968 50.9331C246.896 47.7667 245.355 43.7886 245.355 39.019C245.355 34.2493 246.886 30.0709 249.958 26.8443C253.019 23.6178 256.871 22.0045 261.494 22.0045C266.406 22.0045 270.398 23.6178 273.47 26.8443C276.541 30.0709 278.082 34.3395 278.082 39.6402L278.052 41.1733L278.042 41.1833ZM270.218 34.8606C269.698 33.0769 268.677 31.624 267.167 30.5017C265.646 29.3795 263.875 28.8183 261.874 28.8183C259.693 28.8183 257.782 29.4496 256.131 30.7021C255.1 31.4837 254.14 32.8665 253.26 34.8505H270.218V34.8606Z" fill="black"/>
<path d="M314.891 29.3193L308.378 32.9968C307.157 31.6841 305.947 30.7723 304.746 30.2612C303.556 29.7502 302.155 29.4997 300.544 29.4997C297.623 29.4997 295.251 30.4015 293.44 32.1851C291.63 33.9788 290.729 36.2734 290.729 39.0791C290.729 41.8848 291.599 44.0291 293.34 45.7526C295.081 47.4761 297.362 48.3378 300.194 48.3378C303.696 48.3378 306.417 47.1154 308.368 44.6604L314.541 48.9992C311.2 53.4682 306.477 55.7027 300.384 55.7027C294.901 55.7027 290.609 54.0293 287.507 50.6926C284.406 47.3558 282.855 43.4479 282.855 38.9689C282.855 35.8726 283.605 33.0068 285.116 30.4015C286.627 27.7963 288.728 25.7421 291.429 24.2491C294.131 22.7561 297.152 22.0146 300.494 22.0146C303.586 22.0146 306.367 22.6458 308.828 23.9184C311.29 25.181 313.311 26.9846 314.871 29.3193H314.891Z" fill="black"/>
<path d="M321.965 10.4812H329.729V26.0828C331.26 24.7301 332.79 23.708 334.341 23.0366C335.892 22.3552 337.453 22.0246 339.044 22.0246C342.135 22.0246 344.747 23.1268 346.868 25.3212C348.679 27.2251 349.589 30.0208 349.589 33.7082V54.8811H341.885V40.8326C341.885 37.1251 341.715 34.61 341.365 33.2974C341.015 31.9847 340.434 31.0027 339.604 30.3514C338.773 29.7001 337.743 29.3795 336.522 29.3795C334.942 29.3795 333.571 29.9206 332.44 31.0027C331.3 32.0849 330.519 33.5579 330.079 35.4217C329.849 36.3836 329.739 38.5781 329.739 42.015V54.8811H321.975V10.4812H321.965Z" fill="black"/>
<path d="M145.454 8.55732L139.511 15.1607C137.43 11.5033 135.299 9.66957 133.138 9.66957C132.087 9.66957 131.227 10.0203 130.557 10.7317C129.886 11.4432 129.556 12.2448 129.556 13.1366C129.556 14.0284 129.796 14.8701 130.276 15.6617C130.927 16.7238 132.888 18.9984 136.159 22.4855C139.221 25.712 141.082 27.7462 141.732 28.5879C143.353 30.6621 144.514 32.636 145.194 34.5299C145.874 36.4237 146.215 38.4879 146.215 40.7224C146.215 45.0812 145.024 48.6785 142.633 51.5143C140.241 54.35 137.13 55.7729 133.278 55.7729C130.276 55.7729 127.665 54.841 125.434 52.9973C123.203 51.1535 121.302 48.2276 119.711 44.2596L126.454 39.1292C128.485 43.8187 130.817 46.1734 133.458 46.1734C134.839 46.1734 135.989 45.6724 136.93 44.6604C137.87 43.6483 138.341 42.486 138.341 41.1533C138.341 39.9509 137.99 38.7484 137.28 37.546C136.57 36.3436 135.009 34.4998 132.598 32.0248C128.005 27.3053 125.044 23.6679 123.703 21.1027C122.362 18.5375 121.692 15.9823 121.692 13.4272C121.692 9.73971 122.803 6.58332 125.034 3.94799C127.245 1.32268 129.996 0 133.268 0C135.369 0 137.37 0.611237 139.271 1.84373C141.172 3.07623 143.233 5.31075 145.454 8.55732Z" fill="black"/>
<path d="M121.522 65.5126H123.113L127.965 76.8455L132.898 65.5126H134.488L128.115 80.1823H127.795L121.512 65.5126H121.522Z" fill="black"/>
<path d="M136.97 65.5126H145.364V66.9455H138.43V71.5448H145.304V72.9777H138.43V78.7394H145.304V80.1723H136.97V65.5026V65.5126Z" fill="black"/>
<path d="M147.885 80.1823V65.5126H150.927C153.118 65.5126 154.709 65.6929 155.699 66.0437C157.12 66.5447 158.231 67.4064 159.031 68.6389C159.831 69.8714 160.232 71.3344 160.232 73.0378C160.232 74.5108 159.911 75.8034 159.281 76.9157C158.651 78.0279 157.82 78.8596 156.81 79.3907C155.799 79.9217 154.379 80.1923 152.558 80.1923H147.895L147.885 80.1823ZM149.296 78.7995H150.987C153.008 78.7995 154.419 78.6692 155.199 78.4187C156.3 78.058 157.17 77.4167 157.8 76.4848C158.431 75.5529 158.751 74.4106 158.751 73.0578C158.751 71.645 158.411 70.4325 157.72 69.4305C157.04 68.4285 156.079 67.7371 154.859 67.3663C153.938 67.0858 152.438 66.9455 150.327 66.9455H149.286V78.7894L149.296 78.7995Z" fill="black"/>
<path d="M169.046 65.5126L175.88 80.1823H174.299L171.998 75.3525H165.684L163.403 80.1823H161.772L168.696 65.5126H169.056H169.046ZM168.866 68.6289L166.355 73.9396H171.367L168.866 68.6289Z" fill="black"/>
<path d="M191.788 68.2381L190.637 69.1299C189.997 68.2982 189.237 67.6669 188.346 67.2361C187.456 66.8052 186.475 66.5948 185.405 66.5948C184.234 66.5948 183.154 66.8753 182.163 67.4365C181.163 67.9976 180.392 68.7491 179.852 69.7011C179.302 70.653 179.032 71.7151 179.032 72.8975C179.032 74.6912 179.642 76.1742 180.872 77.3766C182.103 78.579 183.644 79.1702 185.505 79.1702C187.556 79.1702 189.277 78.3686 190.657 76.7553L191.808 77.6371C191.078 78.569 190.167 79.2905 189.077 79.7915C187.986 80.3025 186.766 80.553 185.415 80.553C182.853 80.553 180.832 79.7013 179.352 77.9878C178.111 76.5449 177.491 74.8014 177.491 72.7572C177.491 70.6129 178.241 68.7992 179.742 67.3363C181.243 65.8733 183.134 65.1418 185.395 65.1418C186.766 65.1418 187.996 65.4124 189.097 65.9535C190.197 66.4946 191.098 67.2561 191.808 68.2281L191.788 68.2381ZM184.434 80.1823H185.315L185.145 81.3647C185.295 81.3446 185.425 81.3346 185.525 81.3346C185.845 81.3346 186.125 81.4348 186.345 81.6352C186.565 81.8356 186.675 82.0961 186.675 82.3968C186.675 82.8376 186.475 83.2084 186.075 83.509C185.675 83.8196 185.115 83.9699 184.394 83.9699C183.804 83.9699 183.254 83.8697 182.733 83.6693L182.954 82.9779C183.374 83.1082 183.774 83.1783 184.144 83.1783C184.644 83.1783 184.995 83.1182 185.185 82.998C185.385 82.8777 185.485 82.7174 185.485 82.537C185.485 82.4268 185.435 82.3266 185.325 82.2364C185.215 82.1462 185.065 82.1062 184.875 82.1062C184.714 82.1062 184.484 82.1362 184.174 82.1963L184.444 80.1723L184.434 80.1823Z" fill="black"/>
<path d="M201.703 65.1418C203.924 65.1418 205.775 65.8833 207.276 67.3663C208.767 68.8493 209.517 70.673 209.517 72.8374C209.517 75.0018 208.767 76.8054 207.276 78.2985C205.785 79.7915 203.964 80.543 201.823 80.543C199.682 80.543 197.821 79.8015 196.32 78.3085C194.829 76.8155 194.079 75.0218 194.079 72.9076C194.079 71.4947 194.419 70.1921 195.1 68.9896C195.78 67.7872 196.71 66.8453 197.881 66.1639C199.052 65.4825 200.332 65.1418 201.693 65.1418H201.703ZM201.773 66.5747C200.693 66.5747 199.662 66.8553 198.691 67.4265C197.721 67.9876 196.961 68.7491 196.42 69.7111C195.88 70.673 195.6 71.7352 195.6 72.9176C195.6 74.6611 196.2 76.1341 197.411 77.3365C198.621 78.5389 200.072 79.1402 201.773 79.1402C202.914 79.1402 203.964 78.8596 204.925 78.3085C205.895 77.7574 206.646 77.0058 207.186 76.0439C207.726 75.0819 207.996 74.0198 207.996 72.8474C207.996 71.6751 207.726 70.6329 207.186 69.691C206.646 68.7491 205.885 67.9976 204.895 67.4265C203.914 66.8653 202.864 66.5747 201.763 66.5747H201.773ZM204.745 62.3362L205.445 63.3081C204.965 63.6588 204.565 63.8893 204.234 64.0095C203.904 64.1298 203.554 64.1899 203.194 64.1899C202.714 64.1899 202.223 64.0697 201.723 63.8192C201.293 63.6087 201.013 63.4885 200.893 63.4484C200.733 63.3983 200.562 63.3783 200.372 63.3783C200.142 63.3783 199.922 63.4183 199.712 63.4985C199.502 63.5787 199.202 63.7691 198.802 64.0596L198.141 63.0376C198.741 62.3863 199.492 62.0556 200.382 62.0556C200.803 62.0556 201.313 62.1959 201.903 62.4664C202.463 62.737 202.914 62.8672 203.234 62.8672C203.594 62.8672 204.104 62.6869 204.735 62.3161L204.745 62.3362Z" fill="black"/>
<path d="M212.468 65.5126H220.863V66.9455H213.929V71.5448H220.803V72.9777H213.929V78.7394H220.803V80.1723H212.468V65.5026V65.5126Z" fill="black"/>
<path d="M221.874 77.4467L223.114 76.6952C223.995 78.3085 225.005 79.1201 226.156 79.1201C226.646 79.1201 227.106 79.0099 227.536 78.7794C227.967 78.549 228.297 78.2383 228.527 77.8576C228.757 77.4768 228.867 77.066 228.867 76.6351C228.867 76.1441 228.697 75.6631 228.367 75.1922C227.907 74.5409 227.076 73.7593 225.856 72.8374C224.635 71.9155 223.875 71.2442 223.574 70.8334C223.054 70.142 222.794 69.3904 222.794 68.5888C222.794 67.9475 222.944 67.3663 223.254 66.8453C223.554 66.3242 223.985 65.9034 224.545 65.6028C225.095 65.3022 225.706 65.1519 226.356 65.1519C227.046 65.1519 227.697 65.3222 228.297 65.6629C228.897 66.0036 229.537 66.6349 230.208 67.5567L229.017 68.4686C228.467 67.7371 227.997 67.2561 227.606 67.0257C227.216 66.7952 226.796 66.6749 226.336 66.6749C225.746 66.6749 225.265 66.8553 224.885 67.216C224.505 67.5768 224.325 68.0177 224.325 68.5387C224.325 68.8594 224.395 69.17 224.525 69.4706C224.655 69.7712 224.905 70.0919 225.255 70.4526C225.445 70.643 226.076 71.1239 227.146 71.9155C228.417 72.8575 229.287 73.6891 229.758 74.4206C230.228 75.1521 230.468 75.8836 230.468 76.6251C230.468 77.6872 230.068 78.6091 229.257 79.4007C228.447 80.1823 227.466 80.5731 226.316 80.5731C225.425 80.5731 224.615 80.3326 223.895 79.8616C223.174 79.3907 222.504 78.5891 221.894 77.4768L221.874 77.4467Z" fill="black"/>
<path d="M238.982 65.5126H240.443V80.1823H238.982V65.5126Z" fill="black"/>
<path d="M243.814 80.1823V65.5126H244.135L253.88 76.7553V65.5126H255.32V80.1823H254.99L245.325 69.0698V80.1823H243.814Z" fill="black"/>
<path d="M258.882 80.1823V65.5126H261.924C264.115 65.5126 265.706 65.6929 266.696 66.0437C268.117 66.5447 269.228 67.4064 270.028 68.6389C270.828 69.8714 271.229 71.3344 271.229 73.0378C271.229 74.5108 270.909 75.8034 270.278 76.9157C269.648 78.0279 268.817 78.8596 267.807 79.3907C266.796 79.9217 265.376 80.1923 263.555 80.1923H258.892L258.882 80.1823ZM260.293 78.7995H261.984C264.005 78.7995 265.416 78.6692 266.196 78.4187C267.297 78.058 268.167 77.4167 268.797 76.4848C269.428 75.5529 269.748 74.4106 269.748 73.0578C269.748 71.645 269.408 70.4325 268.717 69.4305C268.027 68.4285 267.077 67.7371 265.856 67.3663C264.935 67.0858 263.435 66.9455 261.324 66.9455H260.283V78.7894L260.293 78.7995Z" fill="black"/>
<path d="M274.11 65.5126H275.571V74.3705C275.571 75.4226 275.591 76.074 275.631 76.3345C275.701 76.9157 275.871 77.3966 276.141 77.7874C276.411 78.1782 276.812 78.4989 277.362 78.7694C277.912 79.0299 278.462 79.1602 279.023 79.1602C279.503 79.1602 279.973 79.06 280.413 78.8496C280.854 78.6391 281.234 78.3586 281.524 77.9878C281.814 77.6171 282.044 77.1762 282.184 76.6652C282.284 76.2944 282.334 75.5329 282.334 74.3705V65.5126H283.795V74.3705C283.795 75.6832 283.665 76.7353 283.415 77.5469C283.165 78.3586 282.644 79.06 281.884 79.6512C281.114 80.2524 280.193 80.553 279.103 80.553C277.922 80.553 276.912 80.2725 276.061 79.7013C275.221 79.1402 274.65 78.3886 274.37 77.4568C274.19 76.8856 274.1 75.8535 274.1 74.3605V65.5026L274.11 65.5126Z" fill="black"/>
<path d="M285.896 77.4467L287.137 76.6952C288.018 78.3085 289.028 79.1201 290.179 79.1201C290.669 79.1201 291.129 79.0099 291.559 78.7794C291.99 78.549 292.32 78.2383 292.55 77.8576C292.78 77.4768 292.89 77.066 292.89 76.6351C292.89 76.1441 292.72 75.6631 292.39 75.1922C291.93 74.5409 291.099 73.7593 289.879 72.8374C288.658 71.9155 287.898 71.2442 287.597 70.8334C287.077 70.142 286.817 69.3904 286.817 68.5888C286.817 67.9475 286.967 67.3663 287.277 66.8453C287.577 66.3242 288.008 65.9034 288.568 65.6028C289.118 65.3022 289.728 65.1519 290.379 65.1519C291.069 65.1519 291.719 65.3222 292.32 65.6629C292.92 66.0036 293.56 66.6349 294.231 67.5567L293.04 68.4686C292.49 67.7371 292.02 67.2561 291.629 67.0257C291.239 66.7952 290.819 66.6749 290.359 66.6749C289.768 66.6749 289.288 66.8553 288.908 67.216C288.528 67.5768 288.348 68.0177 288.348 68.5387C288.348 68.8594 288.418 69.17 288.548 69.4706C288.678 69.7712 288.928 70.0919 289.278 70.4526C289.468 70.643 290.099 71.1239 291.169 71.9155C292.44 72.8575 293.31 73.6891 293.781 74.4206C294.251 75.1521 294.491 75.8836 294.491 76.6251C294.491 77.6872 294.091 78.6091 293.28 79.4007C292.47 80.1823 291.489 80.5731 290.339 80.5731C289.448 80.5731 288.638 80.3326 287.918 79.8616C287.197 79.3907 286.527 78.5891 285.916 77.4768L285.896 77.4467Z" fill="black"/>
<path d="M296.122 66.9455V65.5126H304.146V66.9455H300.884V80.1823H299.393V66.9455H296.132H296.122Z" fill="black"/>
<path d="M306.337 65.5126H309.258C310.879 65.5126 311.99 65.5827 312.56 65.713C313.431 65.9134 314.141 66.3443 314.681 66.9956C315.221 67.6469 315.502 68.4585 315.502 69.4205C315.502 70.2221 315.312 70.9235 314.941 71.5247C314.571 72.126 314.031 72.5869 313.331 72.8975C312.63 73.2081 311.67 73.3685 310.439 73.3685L315.702 80.1823H313.891L308.628 73.3685H307.798V80.1823H306.337V65.5126ZM307.798 66.9455V71.9356L310.319 71.9556C311.299 71.9556 312.02 71.8654 312.49 71.675C312.96 71.4847 313.321 71.1941 313.591 70.7832C313.851 70.3724 313.981 69.9215 313.981 69.4105C313.981 68.8994 313.851 68.4686 313.581 68.0677C313.311 67.6669 312.97 67.3763 312.53 67.206C312.1 67.0357 311.38 66.9455 310.379 66.9455H307.798Z" fill="black"/>
<path d="M318.423 65.5126H319.884V80.1823H318.423V65.5126Z" fill="black"/>
<path d="M329.228 65.5126L336.062 80.1823H334.481L332.18 75.3525H325.867L323.585 80.1823H321.955L328.878 65.5126H329.238H329.228ZM329.038 68.6289L326.527 73.9396H331.54L329.038 68.6289Z" fill="black"/>
<path d="M338.123 65.5126H339.584V80.1823H338.123V65.5126Z" fill="black"/>
<path d="M341.425 77.4467L342.665 76.6952C343.546 78.3085 344.556 79.1201 345.707 79.1201C346.197 79.1201 346.657 79.0099 347.088 78.7794C347.518 78.549 347.848 78.2383 348.078 77.8576C348.308 77.4768 348.418 77.066 348.418 76.6351C348.418 76.1441 348.248 75.6631 347.918 75.1922C347.458 74.5409 346.627 73.7593 345.407 72.8374C344.186 71.9155 343.426 71.2442 343.126 70.8334C342.605 70.142 342.345 69.3904 342.345 68.5888C342.345 67.9475 342.495 67.3663 342.806 66.8453C343.106 66.3242 343.536 65.9034 344.096 65.6028C344.646 65.3022 345.257 65.1519 345.907 65.1519C346.597 65.1519 347.248 65.3222 347.848 65.6629C348.448 66.0036 349.089 66.6349 349.759 67.5567L348.568 68.4686C348.018 67.7371 347.548 67.2561 347.158 67.0257C346.768 66.7952 346.347 66.6749 345.887 66.6749C345.297 66.6749 344.817 66.8553 344.436 67.216C344.056 67.5768 343.876 68.0177 343.876 68.5387C343.876 68.8594 343.946 69.17 344.076 69.4706C344.206 69.7712 344.456 70.0919 344.807 70.4526C344.997 70.643 345.627 71.1239 346.698 71.9155C347.968 72.8575 348.839 73.6891 349.309 74.4206C349.779 75.1521 350.019 75.8836 350.019 76.6251C350.019 77.6872 349.619 78.6091 348.809 79.4007C347.998 80.1823 347.018 80.5731 345.867 80.5731C344.977 80.5731 344.166 80.3326 343.446 79.8616C342.725 79.3907 342.055 78.5891 341.445 77.4768L341.425 77.4467Z" fill="black"/>
<path d="M100.811 0V84" stroke="black" stroke-width="3"/>
<defs>
<linearGradient id="paint0_linear_78_35007" x1="40.9604" y1="8.94156e-06" x2="40.9604" y2="84" gradientUnits="userSpaceOnUse">
<stop stop-color="#ED1B24"/>
<stop offset="1" stop-color="#2D191B"/>
</linearGradient>
</defs>
</svg>
